<?xml version="1.0" standalone="no"?>
<!DOCTYPE svg PUBLIC "-//W3C//DTD SVG 20010904//EN"
 "http://www.w3.org/TR/2001/REC-SVG-20010904/DTD/svg10.dtd">
<svg version="1.0" xmlns="http://www.w3.org/2000/svg"
 width="512.000000pt" height="512.000000pt" viewBox="0 0 512.000000 512.000000"
 preserveAspectRatio="xMidYMid meet">
<metadata>
Created by potrace 1.11, written by Peter Selinger 2001-2013
</metadata>
<g transform="translate(0.000000,512.000000) scale(0.100000,-0.100000)"
fill="#000000" stroke="none">
<path d="M2939 5092 c-43 -22 -59 -38 -81 -81 l-28 -53 0 -1669 c0 -918 -2
-1669 -5 -1669 -3 0 -52 25 -108 55 -280 149 -677 220 -1028 184 -396 -40
-726 -181 -944 -403 -100 -102 -157 -192 -201 -321 -38 -111 -40 -273 -5 -385
45 -145 110 -249 227 -360 258 -246 668 -390 1113 -390 648 0 1193 295 1339
725 l27 80 3 1863 c1 1024 6 1862 11 1862 14 0 152 -100 278 -202 147 -120
325 -303 411 -424 170 -239 241 -448 229 -679 -8 -149 -35 -246 -112 -400 -73
-148 -155 -261 -291 -405 -104 -110 -133 -161 -134 -231 0 -63 40 -139 91
-175 53 -36 147 -45 202 -19 19 9 82 64 139 123 277 285 452 595 515 910 21
107 23 344 4 452 -18 104 -81 291 -135 402 -195 404 -626 820 -1173 1134 -202
116 -248 126 -344 76z m-751 -3676 c275 -55 518 -199 602 -358 28 -52 34 -74
33 -123 0 -85 -31 -144 -122 -235 -122 -121 -289 -201 -518 -247 -138 -28
-482 -25 -622 5 -126 28 -204 54 -296 100 -204 101 -325 241 -325 377 0 216
297 425 696 490 119 19 436 14 552 -9z"/>
</g>
</svg>
